<svg xmlns="http://www.w3.org/2000/svg" width="107" height="107" viewBox="0 0 107 107" fill="none"><g clip-path="url(#clip0_44_2222)"><mask id="mask0_44_2222" style="mask-type:alpha" maskUnits="userSpaceOnUse" x="-3" y="0" width="114" height="62"><path d="M-2.11805 0H110.658L109.45 52.3537L-2.57812 61.0407L-2.11805 0Z" fill="#C4C4C4"></path></mask><g mask="url(#mask0_44_2222)"><path d="M105.02 51.3335C105.02 51.3103 105.02 51.2872 105.02 51.264C104.488 38.3173 99.184 26.2275 89.9662 17.0096C80.2156 7.30536 67.2689 1.93213 53.4884 1.93213C39.731 1.93213 26.7843 7.30536 17.0337 17.0328C8.67281 25.3937 3.55434 36.117 2.25735 47.6741C2.25735 47.6973 2.25735 47.7204 2.25735 47.7436C2.04891 49.6428 1.93311 51.5651 1.93311 53.4874C1.93311 55.734 2.07207 57.9574 2.34999 60.1345C2.34999 60.1576 2.34999 60.1808 2.34999 60.1808C3.41538 68.4259 6.42624 76.2079 11.1973 82.9939C12.1469 84.3603 13.1891 85.7037 14.3008 86.9775C15.1578 87.9965 16.0842 88.9693 17.0337 89.9189C22.7544 95.6395 29.5636 99.8316 36.9981 102.333C38.573 102.866 40.1711 103.306 41.7923 103.699C45.5906 104.579 49.4816 105.02 53.4652 105.02C61.9883 105.02 70.1871 102.958 77.5058 99.0904C78.8954 98.3493 80.2619 97.5618 81.5821 96.6817C84.5466 94.7363 87.349 92.4665 89.9198 89.8957C92.4443 87.3712 94.6677 84.6383 96.5901 81.72C97.2617 80.701 97.887 79.6588 98.4892 78.6165C102.033 72.2937 104.187 65.2993 104.835 57.9574C104.835 57.9342 104.835 57.9111 104.835 57.8879C104.974 56.4288 105.02 54.9233 105.02 53.4411C105.067 52.7694 105.044 52.0515 105.02 51.3335ZM104.627 58.0732C103.978 65.4845 101.732 72.4559 98.2345 78.6397C97.6323 79.7051 97.007 80.7473 96.3353 81.7664C92.398 87.7186 87.2564 92.7908 81.281 96.6586C79.9377 97.5155 78.548 98.3261 77.1352 99.0673C70.0481 102.75 62.0114 104.834 53.5115 104.834C49.6206 104.834 45.8454 104.394 42.2092 103.584C40.5648 103.213 38.9436 102.75 37.3455 102.24C28.4982 99.2989 20.7163 94.0183 14.7177 87.1164C13.606 85.8426 12.5638 84.5225 11.591 83.1328C6.86629 76.4626 3.6933 68.6344 2.5816 60.1576C2.5816 60.1345 2.5816 60.1113 2.5816 60.1113C2.30367 57.9111 2.16471 55.7108 2.16471 53.4874C2.16471 51.5882 2.25735 49.7354 2.4658 47.8826C2.4658 47.8594 2.4658 47.8362 2.4658 47.8131C5.29138 22.1744 27.1086 2.16373 53.4884 2.16373C81.0494 2.16373 103.631 24.0041 104.766 51.3103C104.766 51.3335 104.766 51.3566 104.766 51.3566C104.789 52.0514 104.812 52.7694 104.812 53.4874C104.812 55.016 104.743 56.4983 104.604 58.0037C104.627 58.0269 104.627 58.05 104.627 58.0732Z" stroke="#59B445" stroke-width="3.41347"></path></g><path fill-rule="evenodd" clip-rule="evenodd" d="M62.7082 40.225C62.3468 39.8631 61.7445 39.8229 61.3029 40.1445L54.477 45.4115L55.8823 41.994L55.6816 38.7776C55.521 36.8879 54.7982 36.9281 53.4331 37.0085C52.1482 37.1291 51.3853 36.5261 51.2247 38.7776L50.3815 51.8041L48.8959 48.4671L43.9974 44.6878C43.5959 44.3661 42.9936 44.4063 42.5921 44.7682C42.2307 45.13 42.1905 45.7331 42.5118 46.1754L50.1808 55.302L49.9399 58.8401H57.0468L56.4445 49.432L62.8286 41.6724C63.1097 41.1899 63.1097 40.5868 62.7082 40.225Z" fill="#59B445"></path><path fill-rule="evenodd" clip-rule="evenodd" d="M69.1714 34.6362C69.1714 34.6362 71.46 37.6114 71.2191 40.3052C71.0184 42.5165 70.1752 43.401 69.0911 43.8433C69.0911 43.8433 69.854 40.7475 68.7699 37.7321C68.81 41.3103 67.6858 43.7227 67.6858 43.7227C66.682 43.1196 65.9994 42.0742 66.2001 39.8629C66.4009 37.2094 69.1714 34.6362 69.1714 34.6362Z" fill="#26A935"></path><path fill-rule="evenodd" clip-rule="evenodd" d="M31.8328 21.7344C31.8328 21.7344 28.7812 25.3931 28.9017 28.7703C29.0221 31.5445 30.0259 32.7507 31.3911 33.3538C31.3911 33.3538 30.6282 29.3734 32.1941 25.6343C31.9532 30.1775 33.1578 33.2734 33.1578 33.2734C34.4426 32.5497 35.4063 31.3033 35.2858 28.4889C35.1654 25.1518 31.8328 21.7344 31.8328 21.7344Z" fill="#ABD23D"></path><path fill-rule="evenodd" clip-rule="evenodd" d="M40.0114 34.0933C40.0114 34.0933 36.5985 36.1035 35.7954 38.7571C35.1128 40.9684 35.5947 42.1746 36.478 43.0189C36.478 43.0189 36.9598 39.722 39.2083 37.2293C37.7629 40.687 37.8833 43.4611 37.8833 43.4611C39.0879 43.2601 40.172 42.5364 40.8546 40.3251C41.6978 37.6716 40.0114 34.0933 40.0114 34.0933Z" fill="#59B445"></path><path fill-rule="evenodd" clip-rule="evenodd" d="M56.9758 12.3723C56.9758 12.3723 53.0409 10.8847 50.2704 12.0105C47.9817 12.9352 47.2992 14.1414 47.1787 15.4682C47.1787 15.4682 50.2303 13.6187 53.8439 13.8599C49.9893 14.9857 47.781 16.9156 47.781 16.9156C48.7446 17.8001 50.1098 18.2021 52.3985 17.2774C55.169 16.1517 56.9758 12.3723 56.9758 12.3723Z" fill="#7BDA46"></path><path fill-rule="evenodd" clip-rule="evenodd" d="M63.4363 13.3232C63.4363 13.3232 62.5931 17.0624 63.9181 19.3943C65.0424 21.3241 66.2068 21.8066 67.3712 21.7262C67.3712 21.7262 65.3636 19.1932 65.0825 15.9366C66.5682 19.2334 68.6159 21.0025 68.6159 21.0025C69.2985 19.9974 69.4591 18.751 68.375 16.8211C67.0901 14.5294 63.4363 13.3232 63.4363 13.3232Z" fill="#59B445"></path><path fill-rule="evenodd" clip-rule="evenodd" d="M50.9657 21.2148C50.9657 21.2148 48.4763 25.4364 49.199 28.8539C49.8013 31.6683 51.046 32.7136 52.5316 33.0755C52.5316 33.0755 51.046 29.1755 52.0498 25.1148C52.5718 29.7384 54.3384 32.7136 54.3384 32.7136C55.543 31.7487 56.2657 30.3013 55.7036 27.4869C54.9407 24.1096 50.9657 21.2148 50.9657 21.2148Z" fill="#7BDA46"></path><path fill-rule="evenodd" clip-rule="evenodd" d="M27.995 36.6865C27.995 36.6865 26.429 39.7823 27.0715 42.1545C27.6336 44.1245 28.5571 44.808 29.601 45.0091C29.601 45.0091 28.3965 42.3153 28.8783 39.3803C29.4806 42.6369 30.8458 44.6472 30.8458 44.6472C31.6488 43.9235 32.0905 42.8782 31.5685 40.9081C30.9261 38.536 27.995 36.6865 27.995 36.6865Z" fill="#31A335"></path><path fill-rule="evenodd" clip-rule="evenodd" d="M47.6108 36.0649C47.6108 36.0649 44.8403 38.1958 44.3585 40.6484C43.9971 42.6586 44.5593 43.704 45.4025 44.3473C45.4025 44.3473 45.4828 41.3721 47.2093 38.9195C46.326 42.136 46.6873 44.5885 46.6873 44.5885C47.7313 44.2669 48.6146 43.503 48.976 41.4927C49.498 39.0401 47.6108 36.0649 47.6108 36.0649Z" fill="#59B445"></path><path fill-rule="evenodd" clip-rule="evenodd" d="M75.8949 43.4614C75.8949 43.4614 72.9236 44.5068 71.8395 46.4768C70.9562 48.1253 71.1569 49.1304 71.7191 49.9345C71.7191 49.9345 72.6024 47.4016 74.7706 45.7933C73.1244 48.2861 72.763 50.4974 72.763 50.4974C73.7668 50.5376 74.7305 50.0953 75.5736 48.4871C76.6577 46.517 75.8949 43.4614 75.8949 43.4614Z" fill="#7BDA46"></path><path fill-rule="evenodd" clip-rule="evenodd" d="M61.1006 27.9263C61.1006 27.9263 58.3301 31.4241 58.571 34.5602C58.7718 37.1735 59.7354 38.2591 61.0203 38.7818C61.0203 38.7818 60.1771 35.0828 61.5422 31.5448C61.4619 35.7663 62.6665 38.6611 62.6665 38.6611C63.8711 37.9776 64.7142 36.7313 64.5135 34.1581C64.3127 30.9819 61.1006 27.9263 61.1006 27.9263Z" fill="#59B445"></path><path fill-rule="evenodd" clip-rule="evenodd" d="M70.3825 52.9393C70.3825 52.9393 68.0537 49.3208 65.0825 48.5167C62.6332 47.8734 61.3483 48.4363 60.465 49.4414C60.465 49.4414 64.1188 49.8033 66.9295 52.1754C63.0749 50.7682 60.0635 51.0094 60.0635 51.0094C60.3445 52.3362 61.1877 53.462 63.637 54.1053C66.5681 54.9496 70.3825 52.9393 70.3825 52.9393Z" fill="#59B445"></path><path fill-rule="evenodd" clip-rule="evenodd" d="M31.4575 48.0993C31.4575 48.0993 35.272 47.0137 37.8015 48.2601C39.8894 49.3054 40.4516 50.5116 40.4516 51.758C40.4516 51.758 37.7212 49.7879 34.3083 49.7075C37.8417 51.0745 39.769 53.0847 39.769 53.0847C38.7652 53.8486 37.4803 54.0899 35.3924 53.0445C32.8628 51.7982 31.4575 48.0993 31.4575 48.0993Z" fill="#7BDA46"></path><path fill-rule="evenodd" clip-rule="evenodd" d="M60.1591 17.3765C60.1591 17.3765 62.0462 20.2713 61.6849 22.7238C61.3636 24.7341 60.5205 25.498 59.4765 25.8196C59.4765 25.8196 60.4 23.0052 59.5568 20.1908C59.3561 23.4877 58.1916 25.6186 58.1916 25.6186C57.3083 24.9753 56.7462 23.9702 57.0674 22.0001C57.4689 19.5476 60.1591 17.3765 60.1591 17.3765Z" fill="#26A935"></path><path fill-rule="evenodd" clip-rule="evenodd" d="M39.0264 25.8193C39.0264 25.8193 43.4029 25.8193 45.6916 27.91C47.5787 29.6389 47.8196 31.0863 47.4181 32.3728C47.4181 32.3728 45.0893 29.478 41.5559 28.3523C44.8484 30.845 46.334 33.579 46.334 33.579C45.0492 34.0615 43.6037 33.9811 41.7165 32.2522C39.4279 30.2017 39.0264 25.8193 39.0264 25.8193Z" fill="#59B445"></path><path fill-rule="evenodd" clip-rule="evenodd" d="M76.1117 30.5205C76.1117 30.5205 78.842 33.1339 79.0428 35.8276C79.2034 38.0389 78.4806 39.0843 77.4367 39.6874C77.4367 39.6874 77.7178 36.4709 76.1518 33.6163C76.714 37.1946 75.9912 39.7678 75.9912 39.7678C74.9071 39.3255 74.0639 38.3606 73.9033 36.1493C73.7427 33.4555 76.1117 30.5205 76.1117 30.5205Z" fill="#31A335"></path><path fill-rule="evenodd" clip-rule="evenodd" d="M35.4727 17.219C35.4727 17.219 39.6083 15.8922 42.4189 17.1788C44.7478 18.2241 45.3902 19.5107 45.4303 20.8777C45.4303 20.8777 42.3386 18.8272 38.6447 18.8674C42.5394 20.2344 44.7478 22.3653 44.7478 22.3653C43.7038 23.2096 42.2985 23.5714 39.9697 22.5261C37.159 21.1993 35.4727 17.219 35.4727 17.219Z" fill="#59B445"></path><path fill-rule="evenodd" clip-rule="evenodd" d="M75.1066 21.7344C75.1066 21.7344 70.449 22.7797 68.4815 25.5941C66.8754 27.8858 66.9959 29.494 67.6785 30.7806C67.6785 30.7806 69.4452 27.1219 73.0187 25.0714C70.0876 28.5693 69.1641 31.826 69.1641 31.826C70.6497 32.0672 72.1755 31.5847 73.7816 29.293C75.749 26.5188 75.1066 21.7344 75.1066 21.7344Z" fill="#ABD23D"></path><path d="M106.761 53.488C106.761 55.0739 106.665 57.0115 106.521 58.5734C97.8225 60.8321 89.1864 61.7537 80.7043 61.5374C77.8208 61.4653 74.7811 61.0573 72.3062 60.769C73.9161 60.1923 75.9566 59.4952 77.5906 58.8704C85.6642 55.8428 93.9782 52.695 106.425 51.3014C106.521 51.3014 106.593 51.2773 106.689 51.2773C106.737 52.0222 106.761 52.7431 106.761 53.488Z" fill="#ABD23D"></path><path d="M78.0229 100.753C70.6702 104.573 62.3322 106.736 53.5136 106.736C49.4768 106.736 45.5601 106.279 41.7876 105.438C51.2549 101.401 60.6261 99.5272 69.8051 99.8636C72.7847 99.9597 75.4999 100.296 78.0229 100.753Z" fill="#35CBC4"></path><path d="M97.9424 82.8271C93.8575 89.0025 88.5232 94.2648 82.3237 98.2776C78.6473 97.3645 74.6105 96.6917 69.9249 96.5235C59.0159 96.139 47.9146 98.662 36.7412 104.069C27.5622 101.017 19.4886 95.5383 13.2651 88.3777C20.2094 89.7233 27.1057 90.3961 33.9299 90.3961C34.7709 90.3961 35.6359 90.3961 36.4769 90.3721C47.0736 90.1078 54.8589 88.2816 62.3799 86.5275C69.7567 84.7974 77.3738 82.9953 87.7783 82.6829C91.1423 82.5387 94.5303 82.6108 97.9424 82.8271Z" fill="#ABD23D"></path><path d="M106.629 58.1579C105.956 65.8471 103.625 73.0798 99.997 79.4955C95.9121 79.1831 91.8272 79.0629 87.7423 79.2071C77.0015 79.5435 69.2162 81.3697 61.6712 83.1238C53.982 84.9259 46.7253 86.632 36.465 86.8963C27.7906 87.1126 18.9721 86.1754 10.1055 84.133C5.20362 77.2127 1.91168 69.091 0.758301 60.2965C5.58808 58.6145 10.4419 57.3169 15.2957 56.3798C15.3197 56.3798 15.3678 56.3558 15.4158 56.3558C21.5432 55.1784 27.6705 54.5776 33.7738 54.5776C34.7349 54.5776 35.6961 54.6017 36.6572 54.6257C45.7641 54.914 52.3961 56.4759 58.8117 57.9657C63.0889 58.9749 67.4621 60.0081 72.5802 60.6329C72.6283 60.6329 72.6763 60.6329 72.7244 60.6569C75.2234 60.9693 77.9146 61.1855 80.8461 61.2576C88.3671 61.4499 96.0563 60.6569 103.673 58.9028C104.659 58.6625 105.644 58.4222 106.629 58.1579Z" fill="#59B445"></path></g><defs><clipPath id="clip0_44_2222"><rect width="107" height="107" fill="white"></rect></clipPath></defs></svg>